<svg xmlns="http://www.w3.org/2000/svg" viewBox="0 0 24 30" fill="none" x="0px" y="0px"><path fill-rule="evenodd" clip-rule="evenodd" d="M13.3978 20.5499C13.2785 20.8233 13.0086 21 12.7104 21C11.8394 21 11.0124 20.6497 10.4058 20.056L10.4 20.0504L10.4 20.0503C9.76006 19.4104 9.50037 18.5632 9.50037 17.74L9.50037 15.13L5.45037 15.13C5.10394 15.13 4.76191 15.0613 4.44272 14.9185C4.09522 14.7732 3.81027 14.535 3.59981 14.2983C3.37495 14.0453 3.1934 13.7371 3.09856 13.3841C3.00067 13.055 2.97142 12.6944 3.03011 12.3395C3.03026 12.3385 3.03042 12.3376 3.03057 12.3367L4.18919 5.06524C4.27604 4.49195 4.56325 3.97122 5.00851 3.5937C5.45373 3.19771 6.03384 2.99815 6.60883 3.01L15.8776 3.01C15.9175 3.00342 15.9586 3 16.0004 3L18.5704 3C19.2131 3 19.8281 3.26139 20.2822 3.70132L20.2908 3.7096L20.2907 3.70967C20.7401 4.15906 21.0004 4.7793 21.0004 5.42L21.0004 11.02C21.0004 11.6587 20.7417 12.2771 20.2949 12.7261C19.8338 13.1997 19.2063 13.44 18.5704 13.44L16.5001 13.44L13.3978 20.5499ZM15.2504 12.5535L15.2504 4.51L6.60037 4.51L6.58162 4.50976C6.36423 4.50433 6.15295 4.5817 6.00209 4.71747C5.9956 4.72331 5.98901 4.72903 5.98233 4.73464C5.81414 4.87571 5.70523 5.07017 5.67207 5.29125L5.67106 5.29802L5.67102 5.29802L4.51103 12.578L4.51016 12.5833C4.49032 12.7023 4.49946 12.8354 4.53787 12.9616C4.5408 12.9713 4.54354 12.9809 4.54608 12.9907C4.57238 13.0915 4.62891 13.1982 4.72093 13.3017C4.82771 13.4219 4.93805 13.5005 5.02434 13.5358C5.03321 13.5395 5.042 13.5433 5.05072 13.5472C5.16791 13.6005 5.3014 13.63 5.45037 13.63L10.2504 13.63C10.6646 13.63 11.0004 13.9658 11.0004 14.38L11.0004 17.74C11.0004 18.2552 11.1597 18.6869 11.4579 18.9869C11.6786 19.2019 11.9515 19.3573 12.2465 19.4376L15.2504 12.5535ZM16.7504 4.5L16.7504 11.94L18.5704 11.94C18.8325 11.94 19.0632 11.8418 19.2217 11.6782L19.23 11.6696L19.23 11.6697C19.4007 11.4991 19.5004 11.2593 19.5004 11.02L19.5004 5.42C19.5004 5.18264 19.4023 4.94483 19.2342 4.77449C19.0488 4.59708 18.8058 4.5 18.5704 4.5L16.7504 4.5Z" fill="black"/><text x="0" y="39" fill="#000000" font-size="5px" font-weight="bold" font-family="'Helvetica Neue', Helvetica, Arial-Unicode, Arial, Sans-serif">Created by Akash Yadav</text><text x="0" y="44" fill="#000000" font-size="5px" font-weight="bold" font-family="'Helvetica Neue', Helvetica, Arial-Unicode, Arial, Sans-serif">from the Noun Project</text></svg>