<svg width="40" height="40" viewBox="0 0 40 40" fill="none" xmlns="http://www.w3.org/2000/svg">
<path d="M31.6666 32.3067C31.6666 33.0533 31.4044 33.6889 30.8799 34.2133C30.3555 34.7378 29.7205 35 28.9749 35H11.0249C10.2805 35 9.64547 34.7378 9.11992 34.2133C8.59547 33.6889 8.33325 33.0533 8.33325 32.3067L8.33325 7.69167C8.33325 6.94722 8.59547 6.31222 9.11992 5.78667C9.64436 5.26222 10.2799 5 11.0266 5H28.9749C29.7194 5 30.3544 5.26222 30.8799 5.78667C31.4044 6.31111 31.6666 6.94611 31.6666 7.69167V32.3067ZM29.9999 32.3067V7.69167C29.9999 7.39278 29.9038 7.14722 29.7116 6.955C29.5194 6.76278 29.2738 6.66667 28.9749 6.66667H11.0249C10.726 6.66667 10.4805 6.76278 10.2883 6.955C10.096 7.14722 9.99992 7.39278 9.99992 7.69167L9.99992 32.3083C9.99992 32.6072 10.096 32.8528 10.2883 33.045C10.4805 33.2372 10.7266 33.3333 11.0266 33.3333H28.9749C29.2738 33.3333 29.5194 33.2372 29.7116 33.045C29.9038 32.8528 29.9999 32.6067 29.9999 32.3067Z" fill="white"/>
</svg>
