<svg width="35" height="35" viewBox="0 0 35 35" fill="none" xmlns="http://www.w3.org/2000/svg">
<path d="M20.844 3.34397C21.1175 3.07058 21.4883 2.91699 21.875 2.91699C22.2617 2.91699 22.6326 3.07058 22.9061 3.34397L28.7394 9.17731C29.0128 9.45078 29.1664 9.82165 29.1664 10.2083C29.1664 10.595 29.0128 10.9659 28.7394 11.2394L22.9061 17.0727C22.631 17.3384 22.2627 17.4854 21.8803 17.482C21.4979 17.4787 21.1322 17.3253 20.8618 17.055C20.5914 16.7846 20.438 16.4188 20.4347 16.0364C20.4314 15.6541 20.5784 15.2857 20.844 15.0106L24.188 11.6667H7.29171C6.90493 11.6667 6.534 11.513 6.26051 11.2395C5.98702 10.9661 5.83337 10.5951 5.83337 10.2083C5.83337 9.82157 5.98702 9.45064 6.26051 9.17715C6.534 8.90366 6.90493 8.75001 7.29171 8.75001H24.188L20.844 5.40606C20.5706 5.13258 20.417 4.76171 20.417 4.37501C20.417 3.98832 20.5706 3.61745 20.844 3.34397ZM14.1561 17.9273C14.4295 18.2008 14.5831 18.5716 14.5831 18.9583C14.5831 19.345 14.4295 19.7159 14.1561 19.9894L10.8121 23.3333H27.7084C28.0951 23.3333 28.4661 23.487 28.7396 23.7605C29.0131 24.034 29.1667 24.4049 29.1667 24.7917C29.1667 25.1785 29.0131 25.5494 28.7396 25.8229C28.4661 26.0964 28.0951 26.25 27.7084 26.25H10.8121L14.1561 29.594C14.4217 29.869 14.5687 30.2374 14.5654 30.6198C14.5621 31.0021 14.4087 31.3679 14.1383 31.6383C13.8679 31.9087 13.5022 32.062 13.1198 32.0654C12.7374 32.0687 12.369 31.9217 12.094 31.6561L6.26067 25.8227C5.98727 25.5492 5.83369 25.1784 5.83369 24.7917C5.83369 24.405 5.98727 24.0341 6.26067 23.7606L12.094 17.9273C12.3675 17.6539 12.7383 17.5003 13.125 17.5003C13.5117 17.5003 13.8826 17.6539 14.1561 17.9273Z" fill="#21421B"/>
</svg>
