<svg width="24" height="24" viewBox="0 0 24 24" fill="none" xmlns="http://www.w3.org/2000/svg">
<path d="M14.049 5.54006C14.2514 5.49354 14.4633 5.51119 14.6553 5.59058C14.8472 5.66997 15.0096 5.80714 15.12 5.98306L16.114 7.57006C16.1942 7.69788 16.3022 7.80591 16.43 7.88606L18.017 8.88006C18.1933 8.99039 18.3308 9.15294 18.4104 9.34508C18.49 9.53722 18.5077 9.74939 18.461 9.95206L18.041 11.7761C18.0072 11.9235 18.0072 12.0766 18.041 12.2241L18.461 14.0491C18.5072 14.2514 18.4893 14.4632 18.4098 14.6549C18.3302 14.8466 18.1929 15.0089 18.017 15.1191L16.43 16.1141C16.3022 16.1942 16.1942 16.3022 16.114 16.4301L15.12 18.0171C15.0098 18.1932 14.8474 18.3305 14.6554 18.4101C14.4635 18.4897 14.2516 18.5075 14.049 18.4611L12.224 18.0411C12.0769 18.0073 11.9241 18.0073 11.777 18.0411L9.95203 18.4611C9.74951 18.5075 9.53756 18.4897 9.34562 18.4101C9.15369 18.3305 8.9913 18.1932 8.88103 18.0171L7.88703 16.4301C7.8066 16.3021 7.69822 16.1941 7.57003 16.1141L5.98403 15.1201C5.80793 15.0098 5.67055 14.8474 5.59098 14.6555C5.51141 14.4635 5.4936 14.2516 5.54003 14.0491L5.95903 12.2241C5.99291 12.0766 5.99291 11.9235 5.95903 11.7761L5.53903 9.95206C5.49248 9.74929 5.51032 9.53704 5.59009 9.34489C5.66985 9.15274 5.80756 8.99025 5.98403 8.88006L7.57003 7.88606C7.69822 7.80603 7.8066 7.69799 7.88703 7.57006L8.88103 5.98306C8.99138 5.80733 9.15366 5.67028 9.34538 5.59091C9.5371 5.51153 9.74876 5.49376 9.95103 5.54006L11.777 5.95906C11.9241 5.99279 12.0769 5.99279 12.224 5.95906L14.049 5.54006Z" stroke="white"/>
<path d="M9.51514 12.5361L11.5501 14.4851L14.4851 9.51514" stroke="white" stroke-linecap="round" stroke-linejoin="round"/>
</svg>
