<svg width="30" height="30" viewBox="0 0 30 30" fill="none" xmlns="http://www.w3.org/2000/svg">
<path fill-rule="evenodd" clip-rule="evenodd" d="M5.35714 19.2857C5.78338 19.2857 6.19217 19.455 6.49356 19.7564C6.79496 20.0578 6.96429 20.4666 6.96429 20.8928C6.96429 21.3191 6.79496 21.7279 6.49356 22.0293C6.19217 22.3307 5.78338 22.5 5.35714 22.5C4.9309 22.5 4.52212 22.3307 4.22072 22.0293C3.91932 21.7279 3.75 21.3191 3.75 20.8928C3.75 20.4666 3.91932 20.0578 4.22072 19.7564C4.52212 19.455 4.9309 19.2857 5.35714 19.2857ZM24.6418 19.8214C25.2343 19.8214 25.7143 20.2971 25.7143 20.8928C25.7143 21.4848 25.2375 21.9643 24.6418 21.9643H9.64393C9.50306 21.9647 9.36349 21.9373 9.23325 21.8836C9.103 21.8299 8.98465 21.751 8.88499 21.6515C8.78533 21.5519 8.70632 21.4336 8.65251 21.3034C8.5987 21.1732 8.57115 21.0337 8.57143 20.8928C8.57143 20.3009 9.04821 19.8214 9.64393 19.8214H24.6418ZM5.35714 13.9286C5.78338 13.9286 6.19217 14.0979 6.49356 14.3993C6.79496 14.7007 6.96429 15.1095 6.96429 15.5357C6.96429 15.9619 6.79496 16.3707 6.49356 16.6721C6.19217 16.9735 5.78338 17.1428 5.35714 17.1428C4.9309 17.1428 4.52212 16.9735 4.22072 16.6721C3.91932 16.3707 3.75 15.9619 3.75 15.5357C3.75 15.1095 3.91932 14.7007 4.22072 14.3993C4.52212 14.0979 4.9309 13.9286 5.35714 13.9286ZM24.6418 14.4643C25.2343 14.4643 25.7143 14.94 25.7143 15.5357C25.7143 16.1277 25.2375 16.6071 24.6418 16.6071H9.64393C9.50306 16.6075 9.36349 16.5801 9.23325 16.5265C9.103 16.4728 8.98465 16.3939 8.88499 16.2943C8.78533 16.1948 8.70632 16.0765 8.65251 15.9463C8.5987 15.8161 8.57115 15.6766 8.57143 15.5357C8.57143 14.9437 9.04821 14.4643 9.64393 14.4643H24.6418ZM5.35714 8.57141C5.78338 8.57141 6.19217 8.74073 6.49356 9.04213C6.79496 9.34353 6.96429 9.75231 6.96429 10.1786C6.96429 10.6048 6.79496 11.0136 6.49356 11.315C6.19217 11.6164 5.78338 11.7857 5.35714 11.7857C4.9309 11.7857 4.52212 11.6164 4.22072 11.315C3.91932 11.0136 3.75 10.6048 3.75 10.1786C3.75 9.75231 3.91932 9.34353 4.22072 9.04213C4.52212 8.74073 4.9309 8.57141 5.35714 8.57141ZM24.6418 9.10713C25.2343 9.10713 25.7143 9.58284 25.7143 10.1786C25.7143 10.7705 25.2375 11.25 24.6418 11.25H9.64393C9.50306 11.2504 9.36349 11.223 9.23325 11.1693C9.103 11.1156 8.98465 11.0367 8.88499 10.9372C8.78533 10.8376 8.70632 10.7193 8.65251 10.5892C8.5987 10.459 8.57115 10.3194 8.57143 10.1786C8.57143 9.58659 9.04821 9.10713 9.64393 9.10713H24.6418Z" fill="black" fill-opacity="0.5"/>
</svg>
