<svg width="22" height="22" viewBox="0 0 22 22" fill="none" xmlns="http://www.w3.org/2000/svg">
<path d="M11.5134 19.085C11.3638 19.1924 11.1842 19.2502 11 19.2502C10.8159 19.2502 10.6363 19.1924 10.4867 19.085C6.06013 15.9298 1.36221 9.43983 6.11146 4.75017C7.41527 3.46761 9.17114 2.7492 11 2.75C12.8334 2.75 14.5925 3.46958 15.8886 4.74925C20.6379 9.43892 15.94 15.928 11.5134 19.085Z" stroke="black" stroke-opacity="0.5" stroke-width="1.5" stroke-linecap="round" stroke-linejoin="round"/>
<path d="M11.0001 11C11.4863 11 11.9526 10.8069 12.2964 10.463C12.6403 10.1192 12.8334 9.65291 12.8334 9.16668C12.8334 8.68045 12.6403 8.21413 12.2964 7.87031C11.9526 7.5265 11.4863 7.33334 11.0001 7.33334C10.5139 7.33334 10.0475 7.5265 9.70372 7.87031C9.3599 8.21413 9.16675 8.68045 9.16675 9.16668C9.16675 9.65291 9.3599 10.1192 9.70372 10.463C10.0475 10.8069 10.5139 11 11.0001 11Z" stroke="black" stroke-opacity="0.5" stroke-width="1.5" stroke-linecap="round" stroke-linejoin="round"/>
</svg>
