<svg width="20" height="20" viewBox="0 0 20 20" fill="none" xmlns="http://www.w3.org/2000/svg">
<path d="M7 2.5H3.83333C3.47971 2.5 3.14057 2.64048 2.89052 2.89052C2.64048 3.14057 2.5 3.47971 2.5 3.83333V7C2.5 7.1751 2.53449 7.34848 2.60149 7.51024C2.6685 7.67201 2.76671 7.819 2.89052 7.94281C3.01434 8.06662 3.16132 8.16483 3.32309 8.23184C3.48486 8.29885 3.65824 8.33333 3.83333 8.33333H7C7.1751 8.33333 7.34848 8.29885 7.51024 8.23184C7.67201 8.16483 7.819 8.06662 7.94281 7.94281C8.06662 7.819 8.16483 7.67201 8.23184 7.51024C8.29885 7.34848 8.33333 7.1751 8.33333 7V3.83333C8.33333 3.47971 8.19286 3.14057 7.94281 2.89052C7.69276 2.64048 7.35362 2.5 7 2.5ZM16.1667 2.5H13C12.6464 2.5 12.3072 2.64048 12.0572 2.89052C11.8071 3.14057 11.6667 3.47971 11.6667 3.83333V7C11.6667 7.35362 11.8071 7.69276 12.0572 7.94281C12.3072 8.19286 12.6464 8.33333 13 8.33333H16.1667C16.5203 8.33333 16.8594 8.19286 17.1095 7.94281C17.3595 7.69276 17.5 7.35362 17.5 7V3.83333C17.5 3.47971 17.3595 3.14057 17.1095 2.89052C16.8594 2.64048 16.5203 2.5 16.1667 2.5ZM7 11.6667H3.83333C3.47971 11.6667 3.14057 11.8071 2.89052 12.0572C2.64048 12.3072 2.5 12.6464 2.5 13V16.1667C2.5 16.5203 2.64048 16.8594 2.89052 17.1095C3.14057 17.3595 3.47971 17.5 3.83333 17.5H7C7.35362 17.5 7.69276 17.3595 7.94281 17.1095C8.19286 16.8594 8.33333 16.5203 8.33333 16.1667V13C8.33333 12.6464 8.19286 12.3072 7.94281 12.0572C7.69276 11.8071 7.35362 11.6667 7 11.6667ZM16.1667 11.6667H13C12.6464 11.6667 12.3072 11.8071 12.0572 12.0572C11.8071 12.3072 11.6667 12.6464 11.6667 13V16.1667C11.6667 16.5203 11.8071 16.8594 12.0572 17.1095C12.3072 17.3595 12.6464 17.5 13 17.5H16.1667C16.5203 17.5 16.8594 17.3595 17.1095 17.1095C17.3595 16.8594 17.5 16.5203 17.5 16.1667V13C17.5 12.6464 17.3595 12.3072 17.1095 12.0572C16.8594 11.8071 16.5203 11.6667 16.1667 11.6667Z" stroke="black" stroke-opacity="0.5" stroke-width="1.5" stroke-miterlimit="10" stroke-linejoin="round"/>
</svg>
