<svg width="23" height="26" viewBox="0 0 23 26" fill="none" xmlns="http://www.w3.org/2000/svg">
<g clip-path="url(#clip0_303_271)" filter="url(#filter0_d_303_271)">
<path d="M12.7572 16.9033L18.63 11L12.7572 5.09665C12.7042 5.027 12.6368 4.96956 12.5596 4.92821C12.4825 4.88687 12.3973 4.86259 12.3099 4.85701C12.2226 4.85144 12.135 4.8647 12.0532 4.8959C11.9714 4.92711 11.8973 4.97552 11.8358 5.03786C11.7744 5.10021 11.727 5.17503 11.697 5.25726C11.667 5.3395 11.655 5.42722 11.6618 5.5145C11.6686 5.60178 11.6941 5.68658 11.7365 5.76315C11.779 5.83972 11.8374 5.90628 11.9078 5.95832L16.3017 10.3889L4.61112 10.3889C4.44904 10.3889 4.2936 10.4533 4.179 10.5679C4.06439 10.6825 4 10.8379 4 11C4 11.1621 4.06439 11.3175 4.179 11.4321C4.2936 11.5467 4.44904 11.6111 4.61112 11.6111L16.3017 11.6111L11.9078 16.0416C11.7935 16.1567 11.7296 16.3125 11.7302 16.4746C11.7308 16.6368 11.7958 16.7921 11.9108 16.9064C12.0259 17.0206 12.1817 17.0845 12.3438 17.0839C12.506 17.0834 12.6613 17.0184 12.7756 16.9033H12.7572Z" fill="white"/>
</g>
<defs>
<filter id="filter0_d_303_271" x="-3.70332" y="0" width="30" height="30" filterUnits="userSpaceOnUse" color-interpolation-filters="sRGB">
<feFlood flood-opacity="0" result="BackgroundImageFix"/>
<feColorMatrix in="SourceAlpha" type="matrix" values="0 0 0 0 0 0 0 0 0 0 0 0 0 0 0 0 0 0 127 0" result="hardAlpha"/>
<feOffset dy="4"/>
<feGaussianBlur stdDeviation="2"/>
<feComposite in2="hardAlpha" operator="out"/>
<feColorMatrix type="matrix" values="0 0 0 0 0 0 0 0 0 0 0 0 0 0 0 0 0 0 0.25 0"/>
<feBlend mode="normal" in2="BackgroundImageFix" result="effect1_dropShadow_303_271"/>
<feBlend mode="normal" in="SourceGraphic" in2="effect1_dropShadow_303_271" result="shape"/>
</filter>
<clipPath id="clip0_303_271">
<rect width="22" height="22" fill="white" transform="matrix(0 1 -1 0 22.2967 0)"/>
</clipPath>
</defs>
</svg>
