<svg width="22" height="22" viewBox="0 0 22 22" fill="none" xmlns="http://www.w3.org/2000/svg">
<path d="M18.3333 3.66665H15.4275L13.75 1.83331H8.25001L6.57251 3.66665H3.66668C3.18045 3.66665 2.71413 3.8598 2.37031 4.20362C2.0265 4.54743 1.83334 5.01375 1.83334 5.49998V16.5C1.83334 16.9862 2.0265 17.4525 2.37031 17.7963C2.71413 18.1402 3.18045 18.3333 3.66668 18.3333H18.3333C18.8196 18.3333 19.2859 18.1402 19.6297 17.7963C19.9735 17.4525 20.1667 16.9862 20.1667 16.5V5.49998C20.1667 5.01375 19.9735 4.54743 19.6297 4.20362C19.2859 3.8598 18.8196 3.66665 18.3333 3.66665ZM18.3333 16.5H3.66668V5.49998H7.37918L9.05668 3.66665H12.9433L14.6208 5.49998H18.3333V16.5ZM11 6.41665C9.78443 6.41665 8.61865 6.89953 7.7591 7.75907C6.89956 8.61862 6.41668 9.7844 6.41668 11C6.41668 12.2156 6.89956 13.3813 7.7591 14.2409C8.61865 15.1004 9.78443 15.5833 11 15.5833C12.2156 15.5833 13.3814 15.1004 14.2409 14.2409C15.1005 13.3813 15.5833 12.2156 15.5833 11C15.5833 9.7844 15.1005 8.61862 14.2409 7.75907C13.3814 6.89953 12.2156 6.41665 11 6.41665ZM11 13.75C10.2707 13.75 9.57119 13.4602 9.05547 12.9445C8.53974 12.4288 8.25001 11.7293 8.25001 11C8.25001 10.2706 8.53974 9.57116 9.05547 9.05544C9.57119 8.53971 10.2707 8.24998 11 8.24998C11.7294 8.24998 12.4288 8.53971 12.9446 9.05544C13.4603 9.57116 13.75 10.2706 13.75 11C13.75 11.7293 13.4603 12.4288 12.9446 12.9445C12.4288 13.4602 11.7294 13.75 11 13.75Z" fill="#21421B"/>
</svg>
