<svg width="20" height="20" viewBox="0 0 20 20" fill="none" xmlns="http://www.w3.org/2000/svg">
<path d="M10.0833 15.4583L10 15.5417L9.90834 15.4583C5.95001 11.8667 3.33334 9.49167 3.33334 7.08333C3.33334 5.41667 4.58334 4.16667 6.25 4.16667C7.53334 4.16667 8.78334 5 9.225 6.13333H10.775C11.2167 5 12.4667 4.16667 13.75 4.16667C15.4167 4.16667 16.6667 5.41667 16.6667 7.08333C16.6667 9.49167 14.05 11.8667 10.0833 15.4583ZM13.75 2.5C12.3 2.5 10.9083 3.175 10 4.23333C9.09167 3.175 7.70001 2.5 6.25 2.5C3.68334 2.5 1.66667 4.50833 1.66667 7.08333C1.66667 10.225 4.50001 12.8 8.79167 16.6917L10 17.7917L11.2083 16.6917C15.5 12.8 18.3333 10.225 18.3333 7.08333C18.3333 4.50833 16.3167 2.5 13.75 2.5Z" fill="#21421B"/>
</svg>
