<svg width="25" height="25" viewBox="0 0 25 25" fill="none" xmlns="http://www.w3.org/2000/svg">
<path d="M13.0831 21.6875C12.9131 21.8096 12.7091 21.8753 12.4998 21.8753C12.2905 21.8753 12.0864 21.8096 11.9164 21.6875C6.88623 18.1021 1.54769 10.7271 6.94456 5.39792C8.42617 3.94047 10.4215 3.12409 12.4998 3.125C14.5831 3.125 16.5821 3.94271 18.055 5.39688C23.4519 10.726 18.1133 18.1 13.0831 21.6875Z" stroke="black" stroke-width="1.5" stroke-linecap="round" stroke-linejoin="round"/>
<path d="M12.4998 12.5C13.0524 12.5 13.5823 12.2805 13.973 11.8898C14.3637 11.4991 14.5832 10.9692 14.5832 10.4167C14.5832 9.86414 14.3637 9.33424 13.973 8.94354C13.5823 8.55284 13.0524 8.33334 12.4998 8.33334C11.9473 8.33334 11.4174 8.55284 11.0267 8.94354C10.636 9.33424 10.4165 9.86414 10.4165 10.4167C10.4165 10.9692 10.636 11.4991 11.0267 11.8898C11.4174 12.2805 11.9473 12.5 12.4998 12.5Z" stroke="black" stroke-width="1.5" stroke-linecap="round" stroke-linejoin="round"/>
</svg>
