<svg width="25" height="25" viewBox="0 0 25 25" fill="none" xmlns="http://www.w3.org/2000/svg">
<path d="M13.0833 21.6875C12.9133 21.8096 12.7093 21.8753 12.5 21.8753C12.2907 21.8753 12.0867 21.8096 11.9167 21.6875C6.88647 18.1021 1.54793 10.7271 6.94481 5.39792C8.42641 3.94047 10.4217 3.12409 12.5 3.125C14.5833 3.125 16.5823 3.94271 18.0552 5.39688C23.4521 10.726 18.1136 18.1 13.0833 21.6875Z" stroke="#21421B" stroke-width="1.5" stroke-linecap="round" stroke-linejoin="round"/>
<path d="M12.5 12.5C13.0525 12.5 13.5824 12.2805 13.9731 11.8898C14.3638 11.4991 14.5833 10.9692 14.5833 10.4167C14.5833 9.86417 14.3638 9.33427 13.9731 8.94357C13.5824 8.55287 13.0525 8.33337 12.5 8.33337C11.9474 8.33337 11.4175 8.55287 11.0268 8.94357C10.6361 9.33427 10.4166 9.86417 10.4166 10.4167C10.4166 10.9692 10.6361 11.4991 11.0268 11.8898C11.4175 12.2805 11.9474 12.5 12.5 12.5Z" stroke="#21421B" stroke-width="1.5" stroke-linecap="round" stroke-linejoin="round"/>
</svg>
