<svg width="16" height="16" viewBox="0 0 16 16" fill="none" xmlns="http://www.w3.org/2000/svg">
<path d="M3.00218 10.6745L8.00016 5.80248L12.9982 10.6745C13.0875 10.7617 13.2073 10.8105 13.3322 10.8105C13.457 10.8105 13.5769 10.7617 13.6662 10.6745C13.7094 10.6321 13.7438 10.5815 13.7672 10.5257C13.7907 10.4699 13.8027 10.41 13.8027 10.3495C13.8027 10.2889 13.7907 10.229 13.7672 10.1732C13.7438 10.1174 13.7094 10.0668 13.6662 10.0245L8.34916 4.84048C8.25579 4.74948 8.13056 4.69848 8.00016 4.69848C7.86977 4.69848 7.74454 4.74948 7.65116 4.84048L2.33418 10.0235C2.29058 10.0659 2.25598 10.1165 2.23238 10.1725C2.20878 10.2285 2.19658 10.2887 2.19658 10.3495C2.19658 10.4102 2.20878 10.4704 2.23238 10.5264C2.25598 10.5824 2.29058 10.6331 2.33418 10.6755C2.42348 10.7627 2.54338 10.8115 2.66818 10.8115C2.79298 10.8115 2.91288 10.7617 3.00218 10.6745Z" fill="black"/>
</svg>
