<svg width="24" height="24" viewBox="0 0 24 24" fill="none" xmlns="http://www.w3.org/2000/svg">
<path fill-rule="evenodd" clip-rule="evenodd" d="M12 2.00002C6.47717 2.00002 2 6.47714 2 12C2 17.5228 6.47717 22 12 22C17.5229 22 22 17.5229 22 12C22 6.47714 17.5229 2.00002 12 2.00002ZM12 20C7.58881 20 4.00002 16.4112 4.00002 12C4.00002 7.58878 7.58877 4.00003 12 4.00003C16.4113 4.00003 20 7.58878 20 12C20 16.4112 16.4113 20 12 20ZM13.2522 8.00002C13.2522 8.72508 12.7243 9.25003 12.0102 9.25003C11.2671 9.25003 10.7522 8.72503 10.7522 7.98614C10.7522 7.27598 11.2811 6.75005 12.0102 6.75005C12.7243 6.75005 13.2522 7.27598 13.2522 8.00002ZM11.0022 11H13.0022V17H11.0022V11Z" fill="#21421B" fill-opacity="0.8"/>
</svg>
