<svg width="35" height="35" viewBox="0 0 35 35" fill="none" xmlns="http://www.w3.org/2000/svg">
<path d="M5.41042 7.875H27.5975C29.6071 7.875 31.0581 9.72708 30.5069 11.5908L28.0948 19.7575C27.7229 21.0117 26.5358 21.875 25.1854 21.875H11.83C10.4781 21.875 9.28958 21.0102 8.91917 19.7575L5.41042 7.875ZM5.41042 7.875L4.375 4.375M24.0625 30.625C24.6427 30.625 25.1991 30.3945 25.6093 29.9843C26.0195 29.5741 26.25 29.0177 26.25 28.4375C26.25 27.8573 26.0195 27.3009 25.6093 26.8907C25.1991 26.4805 24.6427 26.25 24.0625 26.25C23.4823 26.25 22.9259 26.4805 22.5157 26.8907C22.1055 27.3009 21.875 27.8573 21.875 28.4375C21.875 29.0177 22.1055 29.5741 22.5157 29.9843C22.9259 30.3945 23.4823 30.625 24.0625 30.625ZM12.3958 30.625C12.976 30.625 13.5324 30.3945 13.9426 29.9843C14.3529 29.5741 14.5833 29.0177 14.5833 28.4375C14.5833 27.8573 14.3529 27.3009 13.9426 26.8907C13.5324 26.4805 12.976 26.25 12.3958 26.25C11.8157 26.25 11.2593 26.4805 10.849 26.8907C10.4388 27.3009 10.2083 27.8573 10.2083 28.4375C10.2083 29.0177 10.4388 29.5741 10.849 29.9843C11.2593 30.3945 11.8157 30.625 12.3958 30.625Z" stroke="black" stroke-width="1.5" stroke-linecap="round" stroke-linejoin="round"/>
</svg>
