<svg width="32" height="32" viewBox="0 0 32 32" fill="none" xmlns="http://www.w3.org/2000/svg">
<path d="M15.5497 17.3639L9.20027 23.7134C8.9627 23.9509 8.66035 24.0697 8.2932 24.0697C7.92605 24.0697 7.6237 23.9509 7.38613 23.7134C7.14857 23.4758 7.02979 23.1734 7.02979 22.8063C7.02979 22.4391 7.14857 22.1368 7.38613 21.8992L13.7356 15.5497L7.38613 9.20027C7.14857 8.9627 7.02979 8.66035 7.02979 8.2932C7.02979 7.92605 7.14857 7.6237 7.38613 7.38613C7.6237 7.14857 7.92605 7.02979 8.2932 7.02979C8.66035 7.02979 8.9627 7.14857 9.20027 7.38613L15.5497 13.7356L21.8992 7.38613C22.1368 7.14857 22.4391 7.02979 22.8063 7.02979C23.1734 7.02979 23.4758 7.14857 23.7134 7.38613C23.9509 7.6237 24.0697 7.92605 24.0697 8.2932C24.0697 8.66035 23.9509 8.9627 23.7134 9.20027L17.3639 15.5497L23.7134 21.8992C23.9509 22.1368 24.0697 22.4391 24.0697 22.8063C24.0697 23.1734 23.9509 23.4758 23.7134 23.7134C23.4758 23.9509 23.1734 24.0697 22.8063 24.0697C22.4391 24.0697 22.1368 23.9509 21.8992 23.7134L15.5497 17.3639Z" fill="#21421B"/>
</svg>
