<svg width="24" height="24" viewBox="0 0 24 24" fill="none" xmlns="http://www.w3.org/2000/svg">
<path d="M12.2429 6.184L8.55889 8.274C7.72789 8.746 7.31189 8.982 7.20389 9.386C7.09589 9.79 7.33789 10.202 7.82189 11.026L8.41689 12.041C8.88889 12.843 9.12389 13.244 9.51989 13.35C9.91589 13.456 10.3199 13.226 11.1299 12.767L14.8649 10.647M7.05589 9.723L3.42389 11.784C2.56689 12.27 2.13889 12.514 2.02689 12.926C1.91489 13.338 2.16189 13.759 2.65589 14.601C3.14989 15.442 3.39689 15.863 3.81689 15.974C4.23689 16.085 4.66489 15.841 5.52089 15.355L9.15389 13.293M21.3439 5.185L20.2949 3.399C19.8009 2.558 19.5539 2.137 19.1349 2.026C18.7149 1.916 18.2869 2.159 17.4299 2.645L13.7469 4.735C12.9149 5.207 12.4999 5.443 12.3919 5.847C12.2829 6.252 12.5249 6.664 13.0089 7.487L14.1289 9.395C14.5999 10.197 14.8359 10.598 15.2319 10.704C15.6279 10.81 16.0319 10.58 16.8409 10.121L20.5759 8.001C21.4329 7.515 21.8609 7.272 21.9729 6.86C22.0849 6.448 21.8379 6.027 21.3439 5.185Z" stroke="#21421B" stroke-opacity="0.8" stroke-width="1.5" stroke-linejoin="round"/>
<path d="M16 22L12 12.5L8 22" stroke="#21421B" stroke-opacity="0.8" stroke-width="1.5" stroke-linecap="round"/>
</svg>
