<svg width="24" height="24" viewBox="0 0 24 24" fill="none" xmlns="http://www.w3.org/2000/svg">
<path d="M5.60398 2.40005C4.85518 2.40005 4.19398 2.92565 4.05598 3.68165C3.87838 4.66324 3.59998 6.41044 3.59998 7.80004C3.59998 9.27724 4.36318 10.5756 5.51398 11.3232C5.83918 11.5356 5.99998 11.8092 5.99998 12.0432V12.5352C5.99998 12.5568 5.99878 12.5784 5.99638 12.6C5.96398 12.912 5.81518 14.3148 5.67478 15.7572C5.53678 17.1792 5.39998 18.6972 5.39998 19.2C5.39998 19.8366 5.65283 20.447 6.10292 20.8971C6.55301 21.3472 7.16346 21.6 7.79998 21.6C8.4365 21.6 9.04695 21.3472 9.49703 20.8971C9.94712 20.447 10.2 19.8366 10.2 19.2C10.2 18.696 10.0632 17.1792 9.92518 15.7572C9.82258 14.7048 9.71538 13.6528 9.60358 12.6012L9.59998 12.5352V12.0432C9.59998 11.808 9.76078 11.5344 10.086 11.3232C10.6734 10.9421 11.1563 10.4201 11.4905 9.80479C11.8248 9.18946 11.9999 8.50031 12 7.80004C12 6.41044 11.7216 4.66324 11.544 3.68165C11.4773 3.32037 11.2857 2.99406 11.0027 2.75978C10.7197 2.52549 10.3633 2.39816 9.99598 2.40005C9.58798 2.40005 9.21598 2.55244 8.93518 2.80324C8.61432 2.54245 8.21345 2.40007 7.79998 2.40005C7.36918 2.40005 6.97438 2.55125 6.66478 2.80324C6.37342 2.54272 5.99482 2.39911 5.60398 2.40005ZM7.19998 4.20004C7.19998 4.04092 7.26319 3.8883 7.37571 3.77578C7.48823 3.66326 7.64085 3.60004 7.79998 3.60004C7.95911 3.60004 8.11172 3.66326 8.22424 3.77578C8.33676 3.8883 8.39998 4.04092 8.39998 4.20004V7.80004C8.39998 7.95917 8.46319 8.11179 8.57571 8.22431C8.68823 8.33683 8.84085 8.40004 8.99998 8.40004C9.15911 8.40004 9.31172 8.33683 9.42424 8.22431C9.53676 8.11179 9.59998 7.95917 9.59998 7.80004V3.99604C9.59998 3.94404 9.61022 3.89255 9.63012 3.8445C9.65002 3.79646 9.67919 3.7528 9.71596 3.71603C9.75273 3.67926 9.79639 3.65009 9.84443 3.63019C9.89248 3.61029 9.94397 3.60004 9.99598 3.60004C10.1844 3.60004 10.332 3.72964 10.3632 3.89644C10.5396 4.87204 10.8 6.52684 10.8 7.80004C10.8 8.30049 10.6749 8.793 10.436 9.23272C10.197 9.67244 9.85189 10.0454 9.43198 10.3176C8.90518 10.6596 8.39998 11.2608 8.39998 12.0432V12.5352C8.39998 12.5992 8.40318 12.6632 8.40958 12.7272C8.44318 13.0368 8.59078 14.436 8.73118 15.8736C8.87278 17.3316 8.99998 18.7716 8.99998 19.2C8.99998 19.5183 8.87355 19.8235 8.6485 20.0486C8.42346 20.2736 8.11824 20.4 7.79998 20.4C7.48172 20.4 7.17649 20.2736 6.95145 20.0486C6.7264 19.8235 6.59998 19.5183 6.59998 19.2C6.59998 18.7716 6.72718 17.3316 6.86878 15.8736C7.00918 14.436 7.15678 13.0368 7.19038 12.7272C7.19678 12.6632 7.19998 12.5992 7.19998 12.5352V12.0432C7.19998 11.2608 6.69478 10.6596 6.16798 10.3176C5.74806 10.0454 5.40292 9.67244 5.16399 9.23272C4.92505 8.793 4.79992 8.30049 4.79998 7.80004C4.79998 6.52804 5.06038 4.87204 5.23678 3.89644C5.25321 3.81145 5.29924 3.73504 5.36669 3.68077C5.43414 3.6265 5.51863 3.5979 5.60518 3.60004C5.70999 3.60036 5.81041 3.64222 5.88441 3.71645C5.95842 3.79068 5.99998 3.89123 5.99998 3.99604V7.80004C5.99998 7.95917 6.06319 8.11179 6.17571 8.22431C6.28823 8.33683 6.44085 8.40004 6.59998 8.40004C6.75911 8.40004 6.91172 8.33683 7.02424 8.22431C7.13676 8.11179 7.19998 7.95917 7.19998 7.80004V4.20004ZM13.2 7.80004C13.2 6.36788 13.7689 4.99436 14.7816 3.98167C15.7943 2.96897 17.1678 2.40005 18.6 2.40005C18.7591 2.40005 18.9117 2.46326 19.0242 2.57578C19.1368 2.6883 19.2 2.84092 19.2 3.00005V11.3736L19.224 11.6424C19.3175 12.7206 19.4087 13.799 19.4976 14.8776C19.6464 16.686 19.8 18.6708 19.8 19.2C19.8 19.8366 19.5471 20.447 19.097 20.8971C18.6469 21.3472 18.0365 21.6 17.4 21.6C16.7635 21.6 16.153 21.3472 15.7029 20.8971C15.2528 20.447 15 19.8366 15 19.2C15 18.672 15.1536 16.686 15.3024 14.8776C15.3768 13.9644 15.4524 13.0812 15.5088 12.4272L15.5448 12H15C14.5226 12 14.0647 11.8104 13.7272 11.4728C13.3896 11.1353 13.2 10.6774 13.2 10.2V7.80004ZM16.7976 11.4528L16.7724 11.7468L16.704 12.5304C16.6476 13.1832 16.572 14.064 16.4976 14.976C16.3464 16.8204 16.2 18.7344 16.2 19.2C16.2 19.5183 16.3264 19.8235 16.5514 20.0486C16.7765 20.2736 17.0817 20.4 17.4 20.4C17.7182 20.4 18.0235 20.2736 18.2485 20.0486C18.4735 19.8235 18.6 19.5183 18.6 19.2C18.6 18.7344 18.4536 16.8204 18.3024 14.976C18.2133 13.8994 18.1217 12.823 18.0276 11.7468L18.0024 11.454V11.4528L18 11.4V3.64205C17.0002 3.78635 16.0859 4.28615 15.4247 5.04983C14.7635 5.81351 14.3997 6.7899 14.4 7.80004V10.2C14.4 10.3592 14.4632 10.5118 14.5757 10.6243C14.6882 10.7368 14.8408 10.8 15 10.8H16.2C16.2832 10.8001 16.3655 10.8174 16.4417 10.8509C16.5179 10.8845 16.5863 10.9335 16.6425 10.9949C16.6987 11.0563 16.7415 11.1287 16.7682 11.2076C16.7949 11.2864 16.8049 11.3699 16.7976 11.4528Z" fill="#21421B" fill-opacity="0.8"/>
</svg>
