<svg width="27" height="27" viewBox="0 0 27 27" fill="none" xmlns="http://www.w3.org/2000/svg">
<path d="M4.5 20.25C4.18125 20.25 3.91425 20.142 3.699 19.926C3.48375 19.71 3.37575 19.443 3.375 19.125C3.37425 18.807 3.48225 18.54 3.699 18.324C3.91575 18.108 4.18275 18 4.5 18H22.5C22.8188 18 23.0861 18.108 23.3021 18.324C23.5181 18.54 23.6258 18.807 23.625 19.125C23.6243 19.443 23.5163 19.7104 23.301 19.9271C23.0858 20.1439 22.8188 20.2515 22.5 20.25H4.5ZM4.5 14.625C4.18125 14.625 3.91425 14.517 3.699 14.301C3.48375 14.085 3.37575 13.818 3.375 13.5C3.37425 13.182 3.48225 12.915 3.699 12.699C3.91575 12.483 4.18275 12.375 4.5 12.375H22.5C22.8188 12.375 23.0861 12.483 23.3021 12.699C23.5181 12.915 23.6258 13.182 23.625 13.5C23.6243 13.818 23.5163 14.0854 23.301 14.3021C23.0858 14.5189 22.8188 14.6265 22.5 14.625H4.5ZM4.5 9C4.18125 9 3.91425 8.892 3.699 8.676C3.48375 8.46 3.37575 8.193 3.375 7.875C3.37425 7.557 3.48225 7.29 3.699 7.074C3.91575 6.858 4.18275 6.75 4.5 6.75H22.5C22.8188 6.75 23.0861 6.858 23.3021 7.074C23.5181 7.29 23.6258 7.557 23.625 7.875C23.6243 8.193 23.5163 8.46037 23.301 8.67712C23.0858 8.89387 22.8188 9.0015 22.5 9H4.5Z" fill="black"/>
</svg>
